<svg width="121" height="40" fill="none" xmlns="http://www.w3.org/2000/svg"><path d="M111.055 0H9.615c-.37 0-.736 0-1.105.002-.308.002-.614.008-.926.013-.677.008-1.353.067-2.02.177a6.76 6.76 0 0 0-1.918.627 6.49 6.49 0 0 0-1.632 1.178A6.261 6.261 0 0 0 .826 3.618a6.563 6.563 0 0 0-.63 1.904 12.888 12.888 0 0 0-.18 2.002c-.01.306-.011.614-.016.92V31.56c.005.31.006.611.015.922.008.67.069 1.34.181 2.002.11.663.323 1.305.63 1.904A6.21 6.21 0 0 0 2.014 38a6.325 6.325 0 0 0 1.632 1.179c.604.304 1.25.517 1.917.63.668.11 1.344.169 2.02.177.313.007.619.011.927.011.37.002.735.002 1.104.002h101.441c.363 0 .731 0 1.093-.002.307 0 .623-.004.93-.01a13.63 13.63 0 0 0 2.017-.177 6.908 6.908 0 0 0 1.924-.631 6.325 6.325 0 0 0 1.63-1.179 6.393 6.393 0 0 0 1.192-1.614 6.57 6.57 0 0 0 .624-1.904 13.31 13.31 0 0 0 .187-2.002c.004-.311.004-.612.004-.922.008-.364.008-.725.008-1.094V9.536c0-.366 0-.73-.008-1.092 0-.306 0-.614-.004-.92a13.307 13.307 0 0 0-.187-2.002 6.567 6.567 0 0 0-.624-1.904 6.5 6.5 0 0 0-2.822-2.8 6.872 6.872 0 0 0-1.924-.627 13.235 13.235 0 0 0-2.017-.176c-.307-.005-.623-.011-.93-.013-.362-.002-.73-.002-1.093-.002z" fill="#A6A6A6"/><path d="M8.515 39.125a40.6 40.6 0 0 1-.911-.01 12.906 12.906 0 0 1-1.885-.164 5.967 5.967 0 0 1-1.67-.548 5.45 5.45 0 0 1-1.41-1.016 5.324 5.324 0 0 1-1.028-1.397 5.689 5.689 0 0 1-.548-1.657 12.28 12.28 0 0 1-.168-1.875c-.006-.21-.015-.913-.015-.913v-23.1s.01-.692.015-.895a12.27 12.27 0 0 1 .167-1.872 5.722 5.722 0 0 1 .548-1.662 5.61 5.61 0 0 1 2.438-2.42 5.906 5.906 0 0 1 1.667-.545A12.794 12.794 0 0 1 7.606.887l.91-.012h103.627l.921.013c.628.007 1.254.062 1.874.162a6.016 6.016 0 0 1 1.684.548 5.62 5.62 0 0 1 2.436 2.42c.262.52.444 1.076.54 1.65.104.623.163 1.254.175 1.886.003.284.003.588.003.89.007.375.007.732.007 1.092v20.929c0 .363 0 .718-.007 1.075 0 .325 0 .623-.004.93-.012.621-.07 1.24-.173 1.853a5.695 5.695 0 0 1-.544 1.67c-.266.513-.612.98-1.024 1.386a5.47 5.47 0 0 1-1.41 1.023 5.954 5.954 0 0 1-1.683.55c-.624.1-1.254.155-1.885.162-.296.007-.605.011-.905.011l-1.093.002-102.54-.002z" fill="#000"/><path d="M24.976 20.3a4.9 4.9 0 0 1 .65-2.378 4.968 4.968 0 0 1 1.726-1.773 5.094 5.094 0 0 0-1.755-1.55 5.141 5.141 0 0 0-2.27-.608c-1.693-.176-3.334 1.005-4.197 1.005-.88 0-2.208-.987-3.639-.958a5.392 5.392 0 0 0-2.617.774 5.335 5.335 0 0 0-1.893 1.954c-1.95 3.348-.496 8.27 1.373 10.976.934 1.325 2.027 2.805 3.456 2.753 1.398-.058 1.92-.885 3.61-.885 1.672 0 2.162.885 3.62.852 1.501-.025 2.446-1.332 3.348-2.67A10.926 10.926 0 0 0 27.92 24.7a4.813 4.813 0 0 1-2.139-1.76 4.754 4.754 0 0 1-.804-2.64zm-2.755-8.089a4.846 4.846 0 0 0 1.124-3.49 5.013 5.013 0 0 0-3.234 1.66 4.627 4.627 0 0 0-1.153 3.36 4.162 4.162 0 0 0 1.809-.393 4.128 4.128 0 0 0 1.454-1.137zM42.656 27.14h-4.773l-1.146 3.356h-2.022l4.521-12.418h2.1l4.521 12.418h-2.056l-1.145-3.356zm-4.279-1.55h3.784l-1.865-5.446h-.053l-1.866 5.447zm17.243.38c0 2.813-1.518 4.621-3.81 4.621a3.116 3.116 0 0 1-1.665-.383 3.082 3.082 0 0 1-1.207-1.201h-.043v4.484h-1.874V21.443h1.814v1.505h.035a3.226 3.226 0 0 1 1.23-1.198 3.26 3.26 0 0 1 1.676-.402c2.317 0 3.845 1.816 3.845 4.622zm-1.925 0c0-1.833-.955-3.038-2.413-3.038-1.432 0-2.395 1.23-2.395 3.038 0 1.824.963 3.046 2.395 3.046 1.458 0 2.413-1.196 2.413-3.046zm11.974 0c0 2.813-1.519 4.621-3.81 4.621a3.116 3.116 0 0 1-1.666-.383 3.082 3.082 0 0 1-1.206-1.201h-.044v4.484H57.07V21.443h1.814v1.505h.035a3.226 3.226 0 0 1 1.23-1.198 3.26 3.26 0 0 1 1.677-.402c2.317 0 3.844 1.816 3.844 4.622zm-1.926 0c0-1.833-.955-3.038-2.413-3.038-1.432 0-2.395 1.23-2.395 3.038 0 1.824.963 3.046 2.395 3.046 1.458 0 2.413-1.196 2.413-3.046zm8.567 1.066c.139 1.232 1.345 2.04 2.993 2.04 1.58 0 2.716-.808 2.716-1.919 0-.964-.685-1.54-2.308-1.936l-1.623-.388c-2.299-.55-3.366-1.617-3.366-3.348 0-2.142 1.882-3.614 4.556-3.614 2.646 0 4.46 1.472 4.52 3.614h-1.891c-.113-1.239-1.146-1.987-2.656-1.987-1.51 0-2.542.757-2.542 1.859 0 .877.66 1.394 2.273 1.79l1.38.336c2.57.602 3.637 1.626 3.637 3.442 0 2.323-1.866 3.778-4.834 3.778-2.777 0-4.652-1.42-4.773-3.667h1.918zM84.043 19.3v2.142h1.736v1.472h-1.736v4.991c0 .776.348 1.137 1.11 1.137a5.76 5.76 0 0 0 .617-.043v1.463a5.182 5.182 0 0 1-1.04.086c-1.849 0-2.57-.689-2.57-2.444v-5.19h-1.327v-1.472h1.327V19.3h1.883zm2.741 6.67c0-2.849 1.692-4.639 4.33-4.639 2.647 0 4.331 1.79 4.331 4.639 0 2.856-1.675 4.639-4.33 4.639-2.656 0-4.33-1.783-4.33-4.64zm6.752 0c0-1.954-.903-3.108-2.422-3.108-1.518 0-2.42 1.163-2.42 3.108 0 1.962.902 3.106 2.42 3.106 1.519 0 2.422-1.144 2.422-3.106zm3.454-4.527h1.787v1.54h.044c.12-.48.405-.906.805-1.204.4-.298.89-.45 1.39-.431.217-.001.432.022.643.07v1.737a2.64 2.64 0 0 0-.842-.112 1.902 1.902 0 0 0-1.46.596 1.87 1.87 0 0 0-.493 1.487v5.37H96.99v-9.053zm13.308 6.394c-.252 1.644-1.866 2.772-3.93 2.772-2.657 0-4.305-1.765-4.305-4.596 0-2.84 1.657-4.682 4.225-4.682 2.526 0 4.115 1.72 4.115 4.466v.637h-6.448v.112a2.34 2.34 0 0 0 .644 1.832 2.378 2.378 0 0 0 1.812.732 2.08 2.08 0 0 0 1.267-.29 2.04 2.04 0 0 0 .84-.983h1.78zm-6.334-2.702h4.564a2.16 2.16 0 0 0-.614-1.634 2.197 2.197 0 0 0-1.626-.664 2.328 2.328 0 0 0-1.645.669 2.291 2.291 0 0 0-.68 1.629zM38.142 8.731a2.682 2.682 0 0 1 2.123.818 2.635 2.635 0 0 1 .708 2.147c0 1.906-1.039 3.002-2.83 3.002h-2.174V8.731h2.173zm-1.239 5.123h1.135a1.906 1.906 0 0 0 1.507-.605 1.872 1.872 0 0 0 .477-1.54 1.866 1.866 0 0 0-.485-1.532 1.897 1.897 0 0 0-1.5-.603h-1.134v4.28zm5.126-1.409a2.117 2.117 0 0 1 .55-1.638 2.15 2.15 0 0 1 1.591-.699 2.166 2.166 0 0 1 1.592.699 2.13 2.13 0 0 1 .55 1.638 2.117 2.117 0 0 1-.549 1.64 2.15 2.15 0 0 1-1.593.7 2.167 2.167 0 0 1-1.593-.7 2.13 2.13 0 0 1-.548-1.64zm3.36 0c0-.976-.441-1.547-1.217-1.547-.78 0-1.217.57-1.217 1.547 0 .983.438 1.55 1.217 1.55.776 0 1.218-.57 1.218-1.55zm6.615 2.253h-.93l-.938-3.317h-.07l-.935 3.317h-.92l-1.253-4.503h.91l.813 3.436h.067l.933-3.436h.86l.933 3.436h.071l.81-3.436h.896l-1.247 4.503zm2.3-4.503h.862v.715h.067a1.365 1.365 0 0 1 1.355-.802 1.488 1.488 0 0 1 1.192.463 1.462 1.462 0 0 1 .38 1.212v2.915h-.896v-2.692c0-.724-.317-1.084-.98-1.084a1.05 1.05 0 0 0-.807.324 1.031 1.031 0 0 0-.277.818v2.634h-.896v-4.503zm5.284-1.758h.896v6.26h-.896v-6.26zm2.142 4.007a2.117 2.117 0 0 1 .549-1.638 2.15 2.15 0 0 1 1.592-.698 2.167 2.167 0 0 1 1.592.698 2.13 2.13 0 0 1 .55 1.638 2.117 2.117 0 0 1-.549 1.64 2.151 2.151 0 0 1-1.593.7 2.167 2.167 0 0 1-1.594-.7 2.13 2.13 0 0 1-.548-1.64zm3.36 0c0-.976-.442-1.546-1.218-1.546-.779 0-1.217.57-1.217 1.546 0 .984.438 1.55 1.217 1.55.776 0 1.218-.57 1.218-1.55zm1.866.98c0-.81.608-1.277 1.689-1.344l1.23-.07v-.389c0-.475-.318-.744-.93-.744-.5 0-.847.182-.946.5h-.868c.092-.773.825-1.269 1.855-1.269 1.139 0 1.78.562 1.78 1.513v3.077h-.862v-.633h-.07a1.523 1.523 0 0 1-1.365.707 1.383 1.383 0 0 1-1.058-.34 1.36 1.36 0 0 1-.455-1.008zm2.919-.384v-.377l-1.11.07c-.625.042-.908.253-.908.65 0 .405.354.641.842.641a1.079 1.079 0 0 0 1.063-.577c.064-.127.103-.265.113-.407zm2.069-.596c0-1.422.738-2.324 1.885-2.324a1.506 1.506 0 0 1 1.392.79h.067V8.437h.897v6.26h-.86v-.71h-.07a1.587 1.587 0 0 1-1.426.786c-1.155 0-1.885-.902-1.885-2.329zm.926 0c0 .956.454 1.53 1.213 1.53.755 0 1.222-.583 1.222-1.526 0-.938-.471-1.53-1.222-1.53-.754 0-1.213.58-1.213 1.526zm7.022.001a2.117 2.117 0 0 1 .55-1.638 2.15 2.15 0 0 1 1.592-.699 2.166 2.166 0 0 1 1.591.699 2.13 2.13 0 0 1 .55 1.638 2.117 2.117 0 0 1-.548 1.64 2.15 2.15 0 0 1-1.593.7 2.167 2.167 0 0 1-1.594-.7 2.13 2.13 0 0 1-.548-1.64zm3.361 0c0-.976-.442-1.547-1.218-1.547-.779 0-1.217.57-1.217 1.547 0 .983.438 1.55 1.217 1.55.776 0 1.218-.57 1.218-1.55zm2.124-2.25h.863v.715h.067a1.365 1.365 0 0 1 1.355-.802 1.488 1.488 0 0 1 1.191.463 1.462 1.462 0 0 1 .38 1.212v2.915h-.896v-2.692c0-.724-.317-1.084-.98-1.084a1.05 1.05 0 0 0-.806.324 1.031 1.031 0 0 0-.278.818v2.634h-.896v-4.503zm8.92-1.121v1.141h.983v.749h-.983v2.315c0 .472.196.679.642.679.114 0 .228-.008.341-.02v.74c-.16.028-.324.043-.487.045-.997 0-1.393-.348-1.393-1.216v-2.543h-.721v-.749h.72V9.074h.898zm2.207-.637h.889v2.482h.07a1.407 1.407 0 0 1 1.384-.807 1.507 1.507 0 0 1 1.181.475 1.48 1.48 0 0 1 .384 1.204v2.907h-.897V12.01c0-.72-.338-1.084-.971-1.084a1.069 1.069 0 0 0-.84.308 1.05 1.05 0 0 0-.303.834v2.63h-.897v-6.26zm9.132 5.045a1.83 1.83 0 0 1-.745 1.006c-.36.238-.792.343-1.222.297a2.077 2.077 0 0 1-1.591-.68 2.04 2.04 0 0 1-.507-1.644 2.06 2.06 0 0 1 .506-1.65 2.093 2.093 0 0 1 1.588-.703c1.263 0 2.025.856 2.025 2.27v.31h-3.206v.05a1.181 1.181 0 0 0 .317.91 1.2 1.2 0 0 0 .892.38 1.096 1.096 0 0 0 1.08-.546h.863zm-3.152-1.451h2.294a1.078 1.078 0 0 0-.299-.829 1.096 1.096 0 0 0-.82-.338 1.17 1.17 0 0 0-.835.338 1.151 1.151 0 0 0-.34.829z" fill="#fff"/></svg>