<svg width="106" height="13" fill="none" xmlns="http://www.w3.org/2000/svg"><g fill="#000"><path d="M8.333 1.468v5.867c0 1.955-.85 2.763-2.891 2.763-2.04 0-2.891-.808-2.891-2.763V1.213H.595a.274.274 0 0 0-.255.255V7.42c0 3.273 2.083 4.421 5.102 4.421 3.018 0 5.101-1.148 5.101-4.421V1.213H8.588c-.128 0-.255.085-.255.255zm28.442 1.445c.17 0 .255-.042.298-.17l.552-1.403c.043-.085 0-.127-.085-.127h-7.907c-.723 0-1.02.212-1.02.722v9.098c0 .425.212.638.764.638h7.355c.17 0 .256-.042.298-.17l.553-1.403c.042-.085 0-.127-.085-.127H30.78V8.1c0-.638.34-.935 1.318-.935h2.934c.17 0 .255-.043.297-.17l.553-1.36c.043-.086 0-.128-.085-.128h-4.974V2.87h5.952v.042z"/><path fill-rule="evenodd" clip-rule="evenodd" d="M22.873 6.144c.85-.467 1.19-1.275 1.19-2.296 0-2.295-1.87-2.635-3.826-2.635h-4.464c-.723 0-1.02.212-1.02.722v9.098c0 .425.212.638.765.638h5.484c2.083 0 3.529-.808 3.529-2.89.042-1.276-.468-2.34-1.658-2.637zm-5.91-3.273h3.444c1.148 0 1.488.425 1.488 1.318 0 .892-.34 1.318-1.488 1.318h-3.444V2.87zm0 7.1h3.869c1.233 0 1.573-.426 1.573-1.403 0-.978-.34-1.446-1.573-1.446h-2.55c-.979 0-1.319.298-1.319.935v1.914zm32.013-2.509l2.339 4.04c.042.042.042.17-.043.17h-1.998c-.17 0-.212-.043-.298-.17l-2.125-3.827h-1.913c-.978 0-1.318.297-1.318.935v3.061h-1.913a.274.274 0 0 1-.256-.255v-9.48c0-.51.298-.723 1.02-.723h4.465c2.593 0 4.166.68 4.166 3.23 0 1.956-.978 2.722-2.126 3.02zM43.577 6.06h3.656c1.36 0 1.658-.51 1.658-1.615 0-1.063-.297-1.573-1.658-1.573h-3.656V6.06z"/></g><g fill="#57AD56" stroke="#57AD56" stroke-width=".25"><path d="M67.598 10.736l-.043.935h-7.737V1.213h7.44l.042.977h-6.42v3.614h5.527v.85H60.88v4.082h6.718z"/><path fill-rule="evenodd" clip-rule="evenodd" d="M74.017 8.95h6.165l1.19 2.721h1.19L77.76 1.213h-1.233L71.679 11.67h1.148l1.19-2.72zm.383-.893l2.253-5.059.425-1.063h.043l.425 1.063 2.21 5.06H74.4z"/><path d="M90.215 2.19v9.481h-1.062v-9.48H85.24l.043-.978h8.885v.977h-3.954zm11.522 9.694c-1.446 0-2.594-.34-3.529-.893l.17-.935a6.744 6.744 0 0 0 3.401.892c1.956 0 2.976-.892 2.976-2.168 0-2.763-6.377-1.318-6.377-4.889 0-1.53 1.148-2.891 3.826-2.891 1.233 0 2.339.213 3.231.638l-.17.893c-.977-.383-1.913-.596-3.018-.596-2.083 0-2.849.936-2.849 1.87 0 2.637 6.378 1.149 6.378 4.89-.043 1.87-1.403 3.189-4.04 3.189z"/></g></svg>