<svg width="192" height="21" fill="none" xmlns="http://www.w3.org/2000/svg"><g fill="#fff"><path d="M15.077 1.846v10.616c0 3.538-1.539 5-5.23 5-3.693 0-5.232-1.462-5.232-5V1.385H1.077c-.23 0-.462.23-.462.461v10.77c0 5.922 3.77 8 9.231 8 5.462 0 9.23-2.078 9.23-8V1.384h-3.538c-.23 0-.461.153-.461.461zm51.461 2.616c.308 0 .462-.077.539-.308l1-2.539c.077-.153 0-.23-.154-.23H53.615c-1.307 0-1.846.384-1.846 1.307v16.462c0 .77.385 1.154 1.385 1.154h13.308c.307 0 .461-.077.538-.308l1-2.538c.077-.154 0-.231-.154-.231H55.692v-3.385c0-1.154.616-1.692 2.385-1.692h5.308c.307 0 .461-.077.538-.308l1-2.461c.077-.154 0-.231-.154-.231h-9v-4.77h10.77v.078z"/><path fill-rule="evenodd" clip-rule="evenodd" d="M41.385 10.308c1.538-.846 2.154-2.308 2.154-4.154 0-4.154-3.385-4.77-6.924-4.77h-8.077c-1.307 0-1.846.385-1.846 1.308v16.462c0 .77.385 1.154 1.385 1.154H38c3.77 0 6.385-1.462 6.385-5.231.077-2.308-.846-4.23-3-4.77zM30.692 4.385h6.231c2.077 0 2.692.769 2.692 2.384 0 1.616-.615 2.385-2.692 2.385h-6.23v-4.77zm0 12.846h7c2.231 0 2.847-.77 2.847-2.539 0-1.769-.616-2.615-2.847-2.615h-4.615c-1.77 0-2.385.538-2.385 1.692v3.462zm57.923-4.539L92.846 20c.077.077.077.308-.077.308h-3.615c-.308 0-.385-.077-.539-.308l-3.846-6.923h-3.461c-1.77 0-2.385.538-2.385 1.692v5.539h-3.461a.496.496 0 0 1-.462-.462V2.692c0-.923.538-1.307 1.846-1.307h8.077c4.692 0 7.539 1.23 7.539 5.846 0 3.538-1.77 4.923-3.847 5.461zm-9.769-2.538h6.615c2.462 0 3-.923 3-2.923 0-1.923-.538-2.846-3-2.846h-6.615v5.769z"/></g><g fill="#57AD56" stroke="#57AD56" stroke-width=".25"><path d="M122.308 18.615l-.077 1.693h-14V1.385h13.461l.078 1.769h-11.616v6.538h10v1.539h-10v7.384h12.154z"/><path fill-rule="evenodd" clip-rule="evenodd" d="M133.923 15.385h11.154l2.153 4.923h2.154l-8.692-18.923h-2.23l-8.77 18.923h2.077l2.154-4.923zm.692-1.616l4.077-9.154.77-1.923h.076l.77 1.923 4 9.154h-9.693z"/><path d="M163.231 3.154v17.154h-1.923V3.154h-7.077l.077-1.77h16.077v1.77h-7.154zm20.846 17.538c-2.616 0-4.693-.615-6.385-1.615l.308-1.692A12.2 12.2 0 0 0 184.154 19c3.538 0 5.384-1.615 5.384-3.923 0-5-11.538-2.385-11.538-8.846C178 3.46 180.077 1 184.923 1c2.23 0 4.23.385 5.846 1.154l-.308 1.615C188.692 3.077 187 2.692 185 2.692c-3.77 0-5.154 1.693-5.154 3.385 0 4.77 11.538 2.077 11.538 8.846-.077 3.385-2.538 5.77-7.307 5.77z"/></g></svg>