<svg width="7" height="14" fill="none" xmlns="http://www.w3.org/2000/svg"><path fill-rule="evenodd" clip-rule="evenodd" d="M3.112 4.427C2.651 2.21 1.263.545.421.196v4.343c.842-.01 1.95-.054 2.691-.112zm2.913-.464c-.153.047-.775.22-2.005.366-.278-1.476-.78-2.734-1.433-3.643a6.915 6.915 0 0 1 3.438 3.277zM.421 5.517a46.484 46.484 0 0 0 2.806-.122c.065.518.081 1.054.081 1.606 0 .709-.025 1.396-.13 2.045a45.886 45.886 0 0 0-2.757-.117V5.517zm0 4.39v3.9c.842-.326 2.089-1.8 2.589-3.795a44.461 44.461 0 0 0-2.59-.105zm2.166 3.41c.59-.82 1.058-1.918 1.348-3.208.968.111 1.578.24 1.885.318a6.918 6.918 0 0 1-3.233 2.89zm1.58-8.02a14.797 14.797 0 0 1-.058 3.845c1.195.14 1.874.31 2.145.388a6.83 6.83 0 0 0 .488-2.529c0-.883-.172-1.758-.505-2.576l.158.447c-.044.015-.714.243-2.227.425z" fill="#fff"/></svg>