<svg width="121" height="40" viewBox="0 0 121 40" fill="none" xmlns="http://www.w3.org/2000/svg">
<path d="M111.055 0.00013H9.61436C9.24459 0.00013 8.87927 0.00013 8.51048 0.00213C8.20177 0.00413 7.89552 0.00994 7.58385 0.01483C6.90675 0.0227318 6.23125 0.0818063 5.5632 0.19154C4.8961 0.303663 4.24989 0.515046 3.64644 0.81854C3.04372 1.1246 2.49301 1.5223 2.01426 1.9972C1.53301 2.47077 1.13184 3.01815 0.826197 3.61829C0.519707 4.21724 0.307186 4.85907 0.195974 5.52161C0.0837046 6.18332 0.0232914 6.85265 0.0152766 7.52361C0.00591905 7.83021 0.00493086 8.13783 0 8.44447V31.5587C0.00493086 31.8692 0.00591905 32.17 0.0152766 32.4806C0.0232939 33.1516 0.0837071 33.8209 0.195974 34.4825C0.306879 35.1455 0.519413 35.7877 0.826197 36.3868C1.1317 36.985 1.53292 37.5302 2.01426 38.0011C2.49119 38.4781 3.04226 38.8761 3.64644 39.1798C4.24989 39.4841 4.89603 39.6968 5.5632 39.8106C6.23136 39.9195 6.9068 39.9786 7.58385 39.9874C7.89552 39.9942 8.20177 39.9981 8.51048 39.9981C8.87926 40.0001 9.24461 40.0001 9.61436 40.0001H111.055C111.418 40.0001 111.786 40.0001 112.148 39.9981C112.455 39.9981 112.771 39.9942 113.078 39.9874C113.754 39.9791 114.428 39.92 115.095 39.8106C115.764 39.696 116.412 39.4834 117.019 39.1798C117.622 38.8759 118.173 38.478 118.649 38.0011C119.129 37.5284 119.532 36.9836 119.841 36.3868C120.145 35.7872 120.356 35.1451 120.465 34.4825C120.578 33.8208 120.64 33.1516 120.652 32.4806C120.656 32.17 120.656 31.8692 120.656 31.5587C120.664 31.1954 120.664 30.8341 120.664 30.4649V9.53626C120.664 9.17005 120.664 8.80677 120.656 8.44447C120.656 8.13783 120.656 7.83021 120.652 7.52357C120.64 6.85255 120.578 6.18337 120.465 5.52157C120.356 4.85941 120.145 4.21763 119.841 3.61825C119.218 2.41533 118.231 1.43616 117.019 0.81845C116.412 0.515697 115.764 0.30437 115.095 0.19145C114.428 0.0812328 113.754 0.0221378 113.078 0.01469C112.771 0.00981 112.455 0.00395 112.148 0.002C111.786 0 111.418 0 111.055 0V0.00013Z" fill="#A6A6A6"/>
<path d="M7.6351 38.25C7.32787 38.25 7.02807 38.2461 6.72325 38.2393C6.0918 38.2311 5.46182 38.1766 4.83849 38.0762C4.25726 37.9769 3.69421 37.7923 3.1679 37.5283C2.64642 37.2665 2.17079 36.9233 1.75923 36.5117C1.34171 36.105 0.994105 35.6332 0.730191 35.1152C0.463369 34.5938 0.278713 34.0349 0.182654 33.458C0.0789184 32.8381 0.0227933 32.2113 0.0147624 31.583C0.00836937 31.3721 -2.04446e-08 30.6699 -2.04446e-08 30.6699V7.56934C-2.04446e-08 7.56934 0.0089139 6.87793 0.0148128 6.6748C0.0225023 6.04748 0.0783011 5.42165 0.181726 4.80273C0.277962 4.22425 0.462762 3.66375 0.729728 3.14063C0.992672 2.62294 1.33835 2.15086 1.75335 1.74268C2.16789 1.33062 2.64504 0.985604 3.16741 0.72021C3.69251 0.457094 4.25449 0.273733 4.83455 0.17627C5.45993 0.0748361 6.09209 0.0199961 6.72573 0.01221L7.63559 0H111.263L112.184 0.0127C112.812 0.0200992 113.438 0.07445 114.058 0.17529C114.644 0.273975 115.211 0.458616 115.742 0.72314C116.789 1.25799 117.64 2.10416 118.178 3.14307C118.44 3.66258 118.622 4.21851 118.717 4.79199C118.822 5.41599 118.881 6.04674 118.893 6.6792C118.896 6.9624 118.896 7.2666 118.896 7.56934C118.903 7.94434 118.903 8.30127 118.903 8.66113V29.5898C118.903 29.9531 118.903 30.3076 118.896 30.665C118.896 30.9902 118.896 31.2881 118.892 31.5947C118.88 32.2159 118.822 32.8354 118.719 33.4482C118.625 34.0293 118.442 34.5925 118.175 35.1182C117.909 35.6306 117.563 36.0983 117.151 36.5039C116.739 36.9177 116.262 37.2629 115.74 37.5264C115.21 37.7924 114.643 37.9777 114.058 38.0762C113.434 38.1772 112.804 38.2317 112.173 38.2393C111.877 38.2461 111.568 38.25 111.268 38.25L110.175 38.252L7.6351 38.25Z" transform="translate(0.880371 0.875122)" fill="black"/>
<path d="M14.921 6.32767C14.9318 5.49301 15.1554 4.67463 15.5708 3.94868C15.9863 3.22273 16.5802 2.61279 17.2972 2.17561C16.8417 1.53045 16.2408 0.999512 15.5422 0.62496C14.8436 0.250407 14.0665 0.0425631 13.2727 0.0179335C11.5794 -0.158327 9.93788 1.02276 9.07502 1.02276C8.19546 1.02276 6.86695 0.0354334 5.43637 0.0646234C4.51102 0.0942715 3.6092 0.361125 2.81878 0.839183C2.02835 1.31724 1.37627 1.9902 0.926068 2.79249C-1.02409 6.14091 0.43055 11.062 2.29864 13.7686C3.23329 15.0939 4.32562 16.5744 5.75492 16.5219C7.15357 16.4643 7.67594 15.6374 9.36423 15.6374C11.0368 15.6374 11.5269 16.5219 12.9852 16.4885C14.4861 16.4643 15.4316 15.1573 16.3335 13.8194C17.005 12.875 17.5218 11.8313 17.8646 10.7268C16.9927 10.3611 16.2486 9.74894 15.7251 8.96664C15.2017 8.18435 14.922 7.26654 14.921 6.32767Z" transform="translate(10.0549 13.9731)" fill="white"/>
<path d="M3.27369 3.49062C4.092 2.51641 4.49515 1.26423 4.39752 1.5686e-07C3.14733 0.130221 1.9925 0.72278 1.16314 1.65961C0.757634 2.11728 0.447063 2.64971 0.249178 3.22648C0.0512923 3.80325 -0.0300265 4.41304 0.00986871 5.021C0.63519 5.02739 1.25382 4.89297 1.81917 4.62788C2.38452 4.3628 2.88184 3.97395 3.27369 3.49062Z" transform="translate(18.9478 8.72046)" fill="white"/>
<path d="M7.94081 9.06155H3.16785L2.02164 12.418H-1.02657e-06L4.52087 2.04468e-07H6.62128L11.1421 12.418H9.08603L7.94081 9.06155ZM3.66218 7.51272H7.44553L5.58047 2.06545H5.52827L3.66218 7.51272Z" transform="translate(34.7151 18.0782)" fill="white"/>
<path d="M8.59962 4.62375C8.59962 7.43723 7.08118 9.24484 4.78973 9.24484C4.20926 9.27495 3.63198 9.14235 3.12397 8.86221C2.61597 8.58207 2.19778 8.16573 1.91729 7.66084H1.87393V12.1452H2.70799e-08V0.0964001H1.81389V1.60226H1.84836C2.14174 1.09979 2.567 0.685604 3.07887 0.403758C3.59074 0.121912 4.17009 -0.0170454 4.75526 0.00166968C7.07227 0.00167968 8.59962 1.81808 8.59962 4.62375ZM6.6735 4.62375C6.6735 2.79075 5.71831 1.58566 4.26092 1.58566C2.82914 1.58566 1.86607 2.81613 1.86607 4.62375C1.86607 6.44797 2.82914 7.66965 4.26092 7.66965C5.71832 7.66965 6.6735 6.47336 6.6735 4.62375Z" transform="translate(47.0212 21.3462)" fill="white"/>
<path d="M8.59962 4.62374C8.59962 7.43722 7.08118 9.24483 4.78973 9.24483C4.20926 9.27494 3.63198 9.14234 3.12397 8.8622C2.61597 8.58206 2.19778 8.16572 1.91729 7.66083H1.87393V12.1452H-3.8158e-08V0.0963906H1.81385V1.60225H1.84832C2.14171 1.09979 2.56696 0.685596 3.07883 0.403752C3.59071 0.121908 4.17005 -0.0170482 4.75523 0.00166971C7.07231 0.00166971 8.59962 1.81807 8.59962 4.62374ZM6.6735 4.62374C6.6735 2.79074 5.71831 1.58565 4.26092 1.58565C2.82914 1.58565 1.86607 2.81612 1.86607 4.62374C1.86607 6.44796 2.82914 7.66964 4.26092 7.66964C5.71832 7.66964 6.6735 6.47335 6.6735 4.62374H6.6735Z" transform="translate(57.0693 21.3462)" fill="white"/>
<path d="M1.91827 9.16509C2.05712 10.3965 3.26342 11.2051 4.91183 11.2051C6.49133 11.2051 7.6277 10.3965 7.6277 9.28614C7.6277 8.32227 6.94232 7.74514 5.3195 7.34962L3.69669 6.96192C1.39736 6.41114 0.329911 5.34473 0.329911 3.61426C0.329911 1.47168 2.21271 3.44238e-07 4.88623 3.44238e-07C7.53215 3.44238e-07 9.34604 1.47168 9.40709 3.61426H7.51541C7.40218 2.375 6.3692 1.62696 4.85962 1.62696C3.35003 1.62696 2.31706 2.3838 2.31706 3.48536C2.31706 4.36329 2.97683 4.87989 4.59079 5.27536L5.97038 5.6113C8.53952 6.21384 9.60697 7.2373 9.60697 9.05368C9.60697 11.3769 7.74091 12.832 4.77295 12.832C1.99603 12.832 0.121122 11.4111 -2.1787e-06 9.165L1.91827 9.16509Z" transform="translate(70.3916 17.8712)" fill="white"/>
<path d="M3.21019 8.72803e-07V2.14258H4.94626V3.61426H3.21019V8.60547C3.21019 9.38086 3.5578 9.74219 4.32096 9.74219C4.52706 9.73863 4.73282 9.72427 4.9374 9.69919V11.1621C4.59428 11.2257 4.24554 11.2545 3.89654 11.248C2.04823 11.248 1.3274 10.5595 1.3274 8.80368V3.61426H5.48983e-07V2.14258H1.32738V8.72803e-07H3.21019Z" transform="translate(80.8328 19.2999)" fill="white"/>
<path d="M2.46181e-06 4.63867C2.46181e-06 1.79004 1.69175 4.09546e-07 4.32983 4.09546e-07C6.97677 4.09546e-07 8.66064 1.79 8.66064 4.63867C8.66064 7.49512 6.98563 9.27734 4.32983 9.27734C1.67497 9.27734 2.46181e-06 7.49511 2.46181e-06 4.63867ZM6.75126 4.63867C6.75126 2.68457 5.84827 1.53125 4.32982 1.53125C2.81138 1.53125 1.90937 2.69336 1.90937 4.63867C1.90937 6.60058 2.81138 7.74512 4.32982 7.74512C5.84827 7.74512 6.75122 6.60058 6.75122 4.63867H6.75126Z" transform="translate(86.7844 21.3312)" fill="white"/>
<path d="M8.11166e-06 0.0963143H1.78728V1.63731H1.83064C1.95156 1.15603 2.23587 0.730696 2.63577 0.432811C3.03568 0.134926 3.52679 -0.0173529 4.02657 0.00157249C4.24253 0.000824723 4.45788 0.0240849 4.66861 0.0709141V1.80919C4.39598 1.72658 4.11159 1.68864 3.82664 1.69689C3.5544 1.68594 3.283 1.73354 3.03107 1.83643C2.77914 1.93931 2.55264 2.09505 2.36713 2.29294C2.18162 2.49083 2.04149 2.72619 1.95635 2.98286C1.87122 3.23953 1.8431 3.51143 1.87393 3.77989V9.15001H4.18507e-07L8.11166e-06 0.0963143Z" transform="translate(96.99 21.3462)" fill="white"/>
<path d="M8.23524 6.50586C7.98315 8.14941 6.36919 9.27734 4.30422 9.27734C1.64842 9.27734 -1.97191e-06 7.51269 -1.97191e-06 4.68164C-1.97191e-06 1.8418 1.65728 8.72803e-07 4.22545 8.72803e-07C6.75126 8.72803e-07 8.33963 1.7207 8.33963 4.46582V5.10254H1.89166V5.21484C1.8619 5.54804 1.90396 5.88371 2.01506 6.19955C2.12616 6.51539 2.30375 6.80417 2.53603 7.04672C2.76831 7.28927 3.04997 7.48003 3.3623 7.60633C3.67463 7.73264 4.01049 7.7916 4.34756 7.77929C4.79039 7.82044 5.23479 7.71873 5.61464 7.48929C5.9945 7.25985 6.28953 6.91493 6.45585 6.50585L8.23524 6.50586ZM1.90051 3.80371H6.46471C6.48153 3.50411 6.43573 3.2043 6.33018 2.92309C6.22462 2.64189 6.0616 2.38535 5.85133 2.16958C5.64107 1.95382 5.3881 1.78348 5.10831 1.66926C4.82852 1.55505 4.52794 1.49942 4.22545 1.50586C3.92029 1.50405 3.61778 1.5622 3.3354 1.67694C3.05302 1.79168 2.79635 1.96075 2.5802 2.17438C2.36405 2.38802 2.1927 2.64199 2.07604 2.92164C1.95938 3.20129 1.89973 3.50108 1.90051 3.80372V3.80371Z" transform="translate(102.063 21.3312)" fill="white"/>
<path d="M2.17328 0.00677079C2.56615 -0.0211884 2.96038 0.0376716 3.32754 0.179105C3.69469 0.320537 4.02562 0.541018 4.29645 0.824643C4.56728 1.10827 4.77126 1.44797 4.89368 1.81924C5.0161 2.19051 5.0539 2.5841 5.00436 2.97161C5.00436 4.87786 3.96549 5.97361 2.17328 5.97361H1.33676e-06V0.00677079H2.17328ZM0.934496 5.12977H2.0689C2.34963 5.14641 2.63057 5.10076 2.89127 4.99615C3.15197 4.89154 3.38587 4.73059 3.57594 4.52502C3.766 4.31946 3.90746 4.07445 3.99 3.80783C4.07255 3.54121 4.09411 3.25969 4.05311 2.98377C4.09113 2.70894 4.06739 2.42917 3.98358 2.1645C3.89976 1.89984 3.75796 1.65683 3.56832 1.4529C3.37869 1.24897 3.14592 1.08917 2.88669 0.98493C2.62746 0.880693 2.34819 0.83461 2.0689 0.849981H0.934496V5.12977Z" transform="translate(35.969 8.72437)" fill="white"/>
<path d="M0.0101285 2.33638C-0.0184172 2.04046 0.0157187 1.74189 0.110343 1.45982C0.204968 1.17775 0.357991 0.918412 0.559604 0.698429C0.761217 0.478447 1.00697 0.302681 1.28109 0.182406C1.55521 0.0621302 1.85166 2.12805e-07 2.15141 2.12805e-07C2.45116 2.12805e-07 2.74761 0.0621302 3.02173 0.182406C3.29585 0.302681 3.5416 0.478447 3.74321 0.698429C3.94483 0.918412 4.09785 1.17775 4.19248 1.45982C4.2871 1.74189 4.32124 2.04046 4.29269 2.33638C4.32178 2.6326 4.28805 2.93158 4.19368 3.21411C4.0993 3.49663 3.94637 3.75645 3.7447 3.97686C3.54304 4.19728 3.29711 4.37341 3.02271 4.49395C2.74831 4.61448 2.45152 4.67675 2.15141 4.67675C1.8513 4.67675 1.55451 4.61448 1.28011 4.49395C1.00571 4.37341 0.75978 4.19728 0.558115 3.97686C0.356451 3.75645 0.203517 3.49663 0.109143 3.21411C0.0147689 2.93158 -0.018959 2.6326 0.0101285 2.33638ZM3.37098 2.33638C3.37098 1.36031 2.92884 0.789509 2.15289 0.789509C1.37397 0.789509 0.935799 1.36031 0.935799 2.33639C0.935799 3.32028 1.374 3.88668 2.15289 3.88668C2.92886 3.88667 3.37099 3.31636 3.37099 2.33638H3.37098Z" transform="translate(42.0188 10.1082)" fill="white"/>
<path d="M5.04572 4.50293H4.11614L3.1777 1.18652H3.10681L2.1723 4.50293H1.25158L-1.18413e-06 4.04053e-07H0.908902L1.72228 3.436H1.78925L2.72277 4.04053e-07H3.58243L4.51594 3.436H4.58684L5.39628 4.04053e-07H6.29238L5.04572 4.50293Z" transform="translate(46.9585 10.1949)" fill="white"/>
<path d="M8.58433e-06 0.091353H0.862619V0.806682H0.929584C1.04318 0.549762 1.23477 0.33439 1.47766 0.190584C1.72054 0.0467778 2.00261 -0.0182965 2.28456 0.00443224C2.50549 -0.0120407 2.72733 0.0209949 2.93364 0.101091C3.13995 0.181187 3.32544 0.306291 3.47637 0.467135C3.6273 0.627979 3.73981 0.820439 3.80556 1.03026C3.87131 1.24008 3.88861 1.46188 3.85618 1.67923V4.59423H2.96008V1.90239C2.96008 1.17876 2.64301 0.818893 1.98028 0.818893C1.83028 0.811965 1.68054 0.837283 1.54133 0.893113C1.40212 0.948943 1.27673 1.03396 1.17375 1.14235C1.07077 1.25073 0.992644 1.37992 0.94472 1.52105C0.896795 1.66218 0.880208 1.81192 0.896095 1.96V4.59428H8.91175e-07L8.58433e-06 0.091353Z" transform="translate(54.3035 10.1036)" fill="white"/>
<path d="M-9.34256e-07 2.74658e-07H0.896097V6.26074H-9.34256e-07V2.74658e-07Z" transform="translate(59.5876 8.43713)" fill="white"/>
<path d="M0.0101026 2.33646C-0.0184212 2.04052 0.0157357 1.74194 0.110383 1.45986C0.20503 1.17778 0.358079 0.918429 0.559713 0.698442C0.761347 0.478454 1.00712 0.302686 1.28126 0.182409C1.5554 0.0621314 1.85186 3.99286e-07 2.15163 3.99286e-07C2.45141 3.99286e-07 2.74787 0.0621314 3.02201 0.182409C3.29615 0.302686 3.54192 0.478454 3.74355 0.698442C3.94518 0.918429 4.09823 1.17778 4.19288 1.45986C4.28752 1.74194 4.32168 2.04052 4.29316 2.33646C4.32221 2.6327 4.28845 2.93168 4.19405 3.21421C4.09964 3.49673 3.94668 3.75654 3.745 3.97695C3.54331 4.19736 3.29736 4.37348 3.02296 4.49401C2.74855 4.61454 2.45175 4.67681 2.15163 4.67681C1.85151 4.67681 1.55471 4.61454 1.2803 4.49401C1.00589 4.37348 0.759946 4.19736 0.558263 3.97695C0.356579 3.75654 0.203621 3.49673 0.109217 3.21421C0.0148136 2.93168 -0.018948 2.6327 0.0101026 2.33646ZM3.37096 2.33646C3.37096 1.36039 2.92881 0.789593 2.15286 0.789593C1.37395 0.789593 0.935777 1.36039 0.935777 2.33647C0.935777 3.32036 1.37398 3.88676 2.15286 3.88676C2.92882 3.88675 3.37096 3.31644 3.37096 2.33646H3.37096Z" transform="translate(61.7192 10.108)" fill="white"/>
<path d="M1.80943e-06 3.3164C1.80943e-06 2.50585 0.608562 2.03857 1.68879 1.97216L2.91872 1.90185V1.51318C2.91872 1.03759 2.60164 0.76904 1.98914 0.76904C1.48891 0.76904 1.14229 0.95117 1.04282 1.26953H0.175283C0.266862 0.49609 1.00049 -3.07007e-07 2.0305 -3.07007e-07C3.16885 -3.07007e-07 3.81088 0.562 3.81088 1.51318V4.58984H2.94826V3.95703H2.87736C2.73345 4.18402 2.53138 4.36907 2.29177 4.49328C2.05216 4.61749 1.7836 4.67641 1.51352 4.66403C1.32291 4.68369 1.13025 4.66352 0.947983 4.60483C0.765711 4.54613 0.597866 4.4502 0.455267 4.32323C0.312668 4.19626 0.198484 4.04107 0.120069 3.86765C0.0416541 3.69424 0.000752806 3.50645 1.80943e-06 3.3164ZM2.91872 2.93163V2.55517L1.80992 2.62548C1.18462 2.66698 0.901016 2.87792 0.901016 3.27489C0.901016 3.68016 1.25551 3.916 1.74299 3.916C1.88582 3.93034 2.0301 3.91604 2.16724 3.87395C2.30438 3.83186 2.43159 3.76284 2.54128 3.671C2.65097 3.57915 2.74092 3.46637 2.80576 3.33935C2.87061 3.21233 2.90902 3.07367 2.91872 2.93163Z" transform="translate(66.9558 10.108)" fill="white"/>
<path d="M-2.11716e-07 4.00734C-2.11716e-07 2.58449 0.737563 1.68312 1.88476 1.68312C2.16853 1.67015 2.45016 1.73756 2.69673 1.87745C2.94329 2.01735 3.14461 2.22395 3.27716 2.47312H3.34413V2.74658e-07H4.24022V6.26074H3.38155V5.54931H3.31065C3.16786 5.7968 2.95952 6.00084 2.70818 6.13932C2.45685 6.2778 2.17209 6.34545 1.88477 6.33495C0.729685 6.335 -2.11716e-07 5.43361 -2.11716e-07 4.00734ZM0.92567 4.00734C0.92567 4.96242 1.37964 5.53713 2.13886 5.53713C2.89412 5.53713 3.36089 4.95413 3.36089 4.01125C3.36089 3.07277 2.88922 2.48146 2.13886 2.48146C1.38453 2.48146 0.92564 3.06007 0.92564 4.00734H0.92567Z" transform="translate(71.9443 8.43713)" fill="white"/>
<path d="M0.0101325 2.33638C-0.0184131 2.04046 0.0157189 1.74189 0.110344 1.45982C0.204968 1.17775 0.357995 0.918412 0.559608 0.698429C0.761221 0.478447 1.00696 0.302681 1.28109 0.182406C1.55521 0.0621302 1.85166 2.12805e-07 2.15141 2.12805e-07C2.45117 2.12805e-07 2.74761 0.0621302 3.02173 0.182406C3.29585 0.302681 3.5416 0.478447 3.74321 0.698429C3.94482 0.918412 4.09785 1.17775 4.19248 1.45982C4.2871 1.74189 4.32124 2.04046 4.29269 2.33638C4.32178 2.6326 4.28805 2.93158 4.19368 3.21411C4.0993 3.49663 3.94637 3.75645 3.7447 3.97686C3.54304 4.19728 3.29711 4.37341 3.02271 4.49395C2.74831 4.61448 2.45152 4.67675 2.15141 4.67675C1.8513 4.67675 1.55451 4.61448 1.28011 4.49395C1.00571 4.37341 0.75978 4.19728 0.558116 3.97686C0.356451 3.75645 0.203518 3.49663 0.109143 3.21411C0.0147691 2.93158 -0.0189549 2.6326 0.0101325 2.33638ZM3.37099 2.33638C3.37099 1.36031 2.92884 0.789509 2.15289 0.789509C1.37398 0.789509 0.935803 1.36031 0.935803 2.33639C0.935803 3.32028 1.37401 3.88668 2.15289 3.88668C2.92885 3.88667 3.37099 3.31636 3.37099 2.33638Z" transform="translate(79.8821 10.1082)" fill="white"/>
<path d="M-1.15705e-06 0.091353H0.862617V0.806682H0.929585C1.04318 0.549762 1.23477 0.33439 1.47765 0.190584C1.72054 0.0467778 2.00262 -0.0182965 2.28456 0.00443224C2.50549 -0.0120407 2.72733 0.0209949 2.93364 0.101091C3.13994 0.181187 3.32544 0.306291 3.47637 0.467135C3.62731 0.627979 3.73982 0.820439 3.80556 1.03026C3.87131 1.24008 3.8886 1.46188 3.85618 1.67923V4.59423H2.96008V1.90239C2.96008 1.17876 2.64301 0.818893 1.98029 0.818893C1.83028 0.811965 1.68054 0.837283 1.54133 0.893113C1.40212 0.948943 1.27673 1.03396 1.17375 1.14235C1.07077 1.25073 0.992642 1.37992 0.944718 1.52105C0.896793 1.66218 0.880209 1.81192 0.896097 1.96V4.59428H-1.15705e-06V0.091353Z" transform="translate(85.377 10.1036)" fill="white"/>
<path d="M1.6179 4.6875e-07V1.1416H2.60164V1.89014H1.6179V4.20557C1.6179 4.67725 1.81386 4.88379 2.25994 4.88379C2.37414 4.88343 2.48823 4.87658 2.60164 4.86328V5.60351C2.44072 5.63206 2.27767 5.64725 2.1142 5.64892C1.11766 5.64892 0.720815 5.30126 0.720815 4.4331V1.8901H-2.60213e-06V1.14156H0.720815V4.6875e-07H1.6179Z" transform="translate(92.6787 9.07385)" fill="white"/>
<path d="M2.75476e-06 2.74658e-07H0.888223V2.48145H0.959116C1.07824 2.22213 1.27509 2.00554 1.52284 1.86119C1.77059 1.71684 2.05719 1.65176 2.34359 1.67481C2.56337 1.66295 2.78308 1.69934 2.98705 1.78138C3.19102 1.86342 3.37422 1.9891 3.52358 2.14943C3.67294 2.30977 3.78478 2.50082 3.85111 2.70896C3.91744 2.91709 3.93664 3.13718 3.90733 3.35352V6.26075H3.01034V3.57275C3.01034 2.85351 2.67254 2.48925 2.0394 2.48925C1.88539 2.47672 1.73047 2.49772 1.58549 2.55077C1.44051 2.60383 1.30898 2.68766 1.20008 2.79639C1.09118 2.90513 1.00756 3.03615 0.955061 3.18029C0.902561 3.32443 0.882451 3.4782 0.896139 3.63085V6.26073H4.12205e-05L2.75476e-06 2.74658e-07Z" transform="translate(96.5044 8.43713)" fill="white"/>
<path d="M4.08431 3.3741C3.96256 3.78563 3.69877 4.14162 3.3391 4.37977C2.97943 4.61792 2.54678 4.72307 2.11683 4.67683C1.81769 4.68466 1.5204 4.62784 1.24562 4.51031C0.970846 4.39278 0.725148 4.21736 0.525584 3.99622C0.32602 3.77508 0.177375 3.51353 0.0899593 3.2297C0.0025434 2.94588 -0.0215427 2.6466 0.0193669 2.35262C-0.0204681 2.05773 0.00404208 1.7578 0.0912517 1.47313C0.178461 1.18845 0.326333 0.925686 0.524845 0.702612C0.723358 0.479539 0.967881 0.301367 1.24186 0.18016C1.51584 0.0589523 1.81289 -0.00246132 2.11288 7.56723e-05C3.37628 7.56723e-05 4.13846 0.856075 4.13846 2.27008V2.58017H0.932198V2.62997C0.918166 2.79521 0.939114 2.96154 0.993689 3.11829C1.04826 3.27504 1.13527 3.41875 1.24912 3.54021C1.36297 3.66166 1.50116 3.75818 1.65482 3.82358C1.80849 3.88898 1.97423 3.92181 2.14144 3.91997C2.35579 3.94548 2.57295 3.90721 2.76531 3.81C2.95766 3.71279 3.11652 3.56105 3.22168 3.37407L4.08431 3.3741ZM0.932175 1.92293H3.2256C3.23689 1.7718 3.21618 1.62 3.1648 1.47728C3.11341 1.33456 3.0325 1.20408 2.92724 1.09422C2.82198 0.984367 2.69471 0.897562 2.55361 0.839386C2.41251 0.781211 2.2607 0.752952 2.10793 0.756425C1.95295 0.754494 1.79914 0.783352 1.65558 0.841297C1.51202 0.899241 1.38162 0.985101 1.27204 1.09381C1.16247 1.20253 1.07595 1.33189 1.01758 1.47429C0.959218 1.61669 0.930183 1.76923 0.932198 1.92293H0.932175Z" transform="translate(101.552 10.1079)" fill="white"/>
</svg>
